<mxfile host="app.diagrams.net" modified="2023-06-02T08:07:15.791Z" agent="Mozilla/5.0 (Windows NT 10.0; Win64; x64) AppleWebKit/537.36 (KHTML, like Gecko) Chrome/113.0.0.0 Safari/537.36" version="21.3.5" etag="KQNKMci4oHaeZgoGPfoP" type="github">
  <diagram name="페이지-1" id="6Fpc7QqQy7op0Q35qU2K">
    <mxGraphModel>
      <root>
        <mxCell id="0" />
        <mxCell id="1" parent="0" />
      </root>
    </mxGraphModel>
  </diagram>
</mxfile>
